<svg width="167" height="185" fill="none" xmlns="http://www.w3.org/2000/svg"><path d="M115.256 60.178c-2.631 15.483 12.604 48.015-5.144 54.191-17.748 6.176-25.617 16.748-30.786-5.28-2.414-10.286-3.493-29.523 0-38.39 10.602-.974 16.388-9.298 22.776-12.676 14.713-7.781 15.687 0 13.154 2.155z" fill="#EC9630"/><path d="M63.236 49.462c-1.948-17.535-29.03 13.834-16.56 35.46l1.168 27.472 68.193 5.261.189-.768c8.807-35.718 17.631-71.504-3.501-54.76-26.605 21.08-47.595 4.376-49.488-12.665z" fill="#EFBC3A"/><path d="M119.933 85.083c-4.179-18.103-5.501 10-31.174-.311-27.082-17.58-41.512-32.12-44.122.31 0 24.974 13.338 37.906 41.967 37.906 47.163-6.892 35.862-18.582 33.329-37.905z" fill="#EC9630"/><path fill-rule="evenodd" clip-rule="evenodd" d="M57.3.559a21.706 21.706 0 00-18.8 10.853L12.369 56.674a21.706 21.706 0 000 21.706l26.132 45.262a21.706 21.706 0 0018.798 10.853h52.264a21.705 21.705 0 0018.798-10.853l26.132-45.262a21.703 21.703 0 000-21.706l-26.132-45.262A21.705 21.705 0 00109.563.559H57.299zM115.062 104.6V29.784h-17.27v28.502H69.207V29.784h-17.27v74.817h17.27v-29.69h28.586v29.69h17.27z" fill="#fff"/><path d="M26.249 156.771v27.496h-6.328v-10.911H9.446v10.911H3.118v-27.496h6.328v10.475h10.475v-10.475h6.328zm3.945 17.458c0-1.484.262-2.852.786-4.103a10.554 10.554 0 012.225-3.317 9.866 9.866 0 013.23-2.225 9.82 9.82 0 014.015-.83c1.426 0 2.75.277 3.972.83a9.748 9.748 0 013.273 2.225 9.974 9.974 0 012.182 3.317c.553 1.251.83 2.619.83 4.103 0 1.484-.277 2.866-.83 4.146a10.599 10.599 0 01-2.182 3.317 10.696 10.696 0 01-3.273 2.226c-1.222.523-2.546.785-3.972.785-1.426 0-2.764-.262-4.015-.785a10.856 10.856 0 01-3.23-2.226 11.26 11.26 0 01-2.225-3.317c-.524-1.28-.786-2.662-.786-4.146zm14.62 0c0-1.542-.422-2.764-1.265-3.666-.844-.902-1.877-1.353-3.099-1.353-1.222 0-2.255.451-3.099 1.353-.843.902-1.265 2.124-1.265 3.666 0 1.542.422 2.764 1.265 3.666.844.902 1.877 1.353 3.1 1.353 1.221 0 2.254-.451 3.098-1.353.843-.902 1.265-2.124 1.265-3.666zm11.141-4.583H52.9v-5.019h1.528c1.6 0 2.4-.8 2.4-2.4v-2.837h5.02v4.801h4.145v5.455h-4.146v6.547c0 .873.247 1.571.742 2.095.495.494 1.12.741 1.877.741h.61c.175-.029.335-.058.48-.087.146-.029.292-.073.437-.131v5.237c-.233.088-.494.16-.785.219-.582.145-1.266.218-2.051.218-2.3 0-4.074-.626-5.325-1.877-1.251-1.28-1.877-3.128-1.877-5.542v-7.42zm17.475-6.114c0-.938.192-1.826.576-2.664a6.726 6.726 0 011.705-2.216c.738-.639 1.633-1.144 2.685-1.513 1.051-.384 2.23-.576 3.537-.576 1.137 0 2.195.206 3.175.618a8.181 8.181 0 012.6 1.641 7.634 7.634 0 011.77 2.43c.44.909.688 1.889.745 2.941h-2.174c-.113-1.634-.724-2.984-1.832-4.049-1.108-1.08-2.536-1.62-4.284-1.62-.994 0-1.882.142-2.664.426-.78.27-1.442.64-1.981 1.108a4.87 4.87 0 00-1.258 1.599 4.399 4.399 0 00-.426 1.875c0 1.25.37 2.223 1.108 2.919.739.682 1.67 1.243 2.792 1.684 1.122.426 2.33.81 3.623 1.151 1.292.326 2.5.781 3.622 1.363a8.353 8.353 0 012.792 2.302c.753.938 1.13 2.238 1.13 3.9 0 1.108-.2 2.131-.597 3.068a6.688 6.688 0 01-1.726 2.387c-.753.668-1.67 1.201-2.75 1.598-1.08.384-2.3.576-3.665.576-1.364 0-2.585-.192-3.665-.576-1.08-.397-2.003-.944-2.77-1.64a7.321 7.321 0 01-1.79-2.494 8.79 8.79 0 01-.725-3.132h2.195c.227 1.747.916 3.168 2.067 4.262 1.15 1.079 2.713 1.619 4.688 1.619 2.089 0 3.701-.525 4.838-1.577 1.136-1.065 1.704-2.429 1.704-4.091 0-1.307-.369-2.33-1.108-3.069-.738-.753-1.669-1.357-2.791-1.811a25.787 25.787 0 00-3.623-1.194 19.254 19.254 0 01-3.623-1.342c-1.122-.554-2.053-1.279-2.791-2.174-.74-.909-1.109-2.152-1.109-3.729zm38.41 20.735h-2.621l-9.59-10.037v10.037h-1.982v-27.49h1.982v17.453l8.716-9.164h2.621l-8.737 9.164 9.611 10.037zm7.403 0h-1.96v-19.201h1.96v19.201zm-2.408-25.317c0-.44.142-.802.426-1.087a1.507 1.507 0 011.108-.447c.441 0 .803.149 1.087.447.284.285.426.647.426 1.087 0 .441-.142.81-.426 1.108-.284.284-.646.427-1.087.427-.44 0-.809-.143-1.108-.427-.284-.298-.426-.667-.426-1.108zm19.422 5.903c1.08 0 2.088.199 3.026.597a6.72 6.72 0 012.429 1.641c.682.71 1.215 1.562 1.599 2.557.397.994.596 2.088.596 3.282v11.337h-1.96V172.93c0-.867-.156-1.67-.469-2.408a5.87 5.87 0 00-1.257-1.961 5.655 5.655 0 00-1.876-1.279 5.656 5.656 0 00-2.301-.468 6.28 6.28 0 00-2.429.468 5.778 5.778 0 00-1.94 1.279 6.236 6.236 0 00-1.278 1.939c-.299.739-.448 1.549-.448 2.43v11.337h-1.982v-19.201h1.322l.66 2.834h.213a6.66 6.66 0 011.386-1.534c.497-.383 1.129-.732 1.896-1.044.767-.313 1.705-.469 2.813-.469zm28.159 13.958c0 .753-.163 1.478-.49 2.174a5.651 5.651 0 01-1.321 1.811c-.568.512-1.257.924-2.067 1.236-.796.299-1.684.448-2.664.448-1.051 0-1.996-.149-2.834-.448a6.653 6.653 0 01-2.131-1.278 6.312 6.312 0 01-1.428-1.876 6.226 6.226 0 01-.597-2.28h1.961c.227 1.222.732 2.181 1.513 2.877.795.696 1.968 1.044 3.516 1.044 1.421 0 2.536-.369 3.346-1.108.824-.739 1.236-1.605 1.236-2.6 0-.866-.277-1.534-.831-2.003-.554-.469-1.243-.824-2.067-1.065a23.21 23.21 0 00-2.686-.661 12.898 12.898 0 01-2.685-.81 5.684 5.684 0 01-2.045-1.492c-.54-.639-.81-1.541-.81-2.706 0-.696.142-1.364.426-2.003a5.081 5.081 0 011.236-1.662c.54-.483 1.201-.86 1.982-1.13.795-.284 1.69-.426 2.685-.426.938 0 1.79.156 2.557.469a7 7 0 012.025 1.193 5.178 5.178 0 011.363 1.726c.341.668.54 1.357.597 2.068h-1.96a4.584 4.584 0 00-1.492-2.494c-.753-.667-1.783-1.001-3.09-1.001-1.421 0-2.508.326-3.261.98-.738.653-1.108 1.413-1.108 2.28 0 .838.277 1.471.831 1.897.555.426 1.236.76 2.046 1.001.81.228 1.705.441 2.685.64.981.184 1.876.461 2.685.831.81.355 1.492.866 2.046 1.534.554.668.831 1.612.831 2.834z" fill="#fff"/></svg>