<svg width="393" height="356" fill="none" xmlns="http://www.w3.org/2000/svg"><path d="M280.829 158.534c-6.973 41.023 33.396 127.226-13.632 143.59-47.028 16.364-67.878 44.377-81.575-13.99-6.396-27.257-9.254-78.228 0-101.722 28.093-2.581 43.426-24.638 60.351-33.589 38.986-20.618 41.567 0 34.856 5.711z" fill="#EC9630"/><path d="M142.987 130.14c-5.162-46.464-76.922 36.654-43.882 93.959l3.098 72.792 180.69 13.939.502-2.035c23.336-94.643 46.716-189.466-9.278-145.099-70.494 55.857-126.113 11.596-131.13-33.556z" fill="#EFBC3A"/><path d="M293.218 224.523c-11.072-47.967-14.577 26.498-82.601-.823-71.76-46.581-109.996-85.107-116.912.823 0 66.173 35.343 100.439 111.2 100.439 124.968-18.262 95.025-49.237 88.313-100.439z" fill="#EC9630"/><path fill-rule="evenodd" clip-rule="evenodd" d="M127.258.559a57.515 57.515 0 00-49.81 28.757L8.206 149.248a57.515 57.515 0 000 57.515l69.242 119.931a57.514 57.514 0 0049.81 28.758h138.484a57.514 57.514 0 0049.81-28.758l69.242-119.931a57.51 57.51 0 000-57.515L315.552 29.316A57.515 57.515 0 00265.742.56H127.258zM280.312 276.24V77.998H234.55v75.521h-75.744V77.998h-45.762V276.24h45.762v-78.668h75.744v78.668h45.762z" fill="#fff"/></svg>