<svg width="115" height="21" fill="none" xmlns="http://www.w3.org/2000/svg"><path d="M16.44.707v19.542h-4.498v-7.755H4.498v7.755H0V.707h4.498V8.15h7.444V.707h4.498zm2.804 12.407c0-1.054.186-2.026.558-2.916.393-.91.92-1.695 1.582-2.357a7.02 7.02 0 012.296-1.582 6.977 6.977 0 012.853-.59c1.014 0 1.955.197 2.823.59.89.372 1.665.9 2.326 1.582a7.086 7.086 0 011.552 2.357c.392.89.589 1.862.589 2.916a7.353 7.353 0 01-.59 2.947 7.53 7.53 0 01-1.55 2.358A7.597 7.597 0 0129.355 20a7.09 7.09 0 01-2.823.559A7.316 7.316 0 0123.68 20a7.712 7.712 0 01-2.296-1.581 8.001 8.001 0 01-1.582-2.358 7.706 7.706 0 01-.558-2.947zm10.391 0c0-1.096-.3-1.964-.9-2.605-.599-.641-1.333-.962-2.202-.962-.868 0-1.602.32-2.202.962-.6.64-.9 1.51-.9 2.605 0 1.096.3 1.965.9 2.606.6.64 1.334.961 2.202.961.869 0 1.603-.32 2.203-.961.6-.641.9-1.51.9-2.606zm7.919-3.257h-2.172V6.29h1.086c1.137 0 1.706-.569 1.706-1.706V2.568h3.567V5.98h2.947v3.877h-2.947v4.653c0 .62.176 1.117.528 1.489.351.352.796.527 1.333.527h.435c.124-.02.237-.041.34-.062.104-.02.208-.051.311-.093v3.723a3.608 3.608 0 01-.558.155c-.414.103-.9.155-1.458.155-1.634 0-2.895-.445-3.785-1.334-.889-.91-1.333-2.223-1.333-3.94V9.857zm12.42-4.345c0-.667.136-1.298.409-1.894a4.781 4.781 0 011.212-1.575c.525-.454 1.16-.813 1.908-1.075.747-.273 1.585-.41 2.514-.41.808 0 1.56.147 2.257.44a5.811 5.811 0 011.848 1.166 5.43 5.43 0 011.257 1.727c.313.646.49 1.343.53 2.09h-1.545c-.08-1.161-.515-2.12-1.302-2.878-.788-.767-1.803-1.15-3.045-1.15-.707 0-1.338.1-1.893.302a4.223 4.223 0 00-1.409.788 3.458 3.458 0 00-.893 1.136 3.129 3.129 0 00-.303 1.333c0 .888.262 1.58.787 2.075.526.484 1.187.883 1.985 1.196.797.303 1.656.576 2.574.818.92.232 1.777.555 2.575.97a5.91 5.91 0 011.984 1.635c.535.667.803 1.59.803 2.772 0 .787-.141 1.514-.424 2.18a4.756 4.756 0 01-1.227 1.697c-.535.475-1.186.853-1.954 1.136-.767.273-1.636.41-2.605.41-.97 0-1.838-.137-2.605-.41a5.957 5.957 0 01-1.969-1.166 5.196 5.196 0 01-1.272-1.772 6.25 6.25 0 01-.515-2.227h1.56c.161 1.242.651 2.252 1.47 3.03.817.767 1.928 1.15 3.331 1.15 1.484 0 2.63-.373 3.438-1.12.808-.757 1.212-1.727 1.212-2.908 0-.93-.263-1.656-.788-2.181-.525-.535-1.186-.965-1.984-1.288a18.334 18.334 0 00-2.575-.848 13.68 13.68 0 01-2.574-.954 5.942 5.942 0 01-1.985-1.545c-.525-.646-.787-1.53-.787-2.65zm27.299 14.737H75.41l-6.816-7.134v7.134h-1.408V.71h1.408v12.405l6.195-6.513h1.863l-6.21 6.513 6.831 7.134zm5.262 0H81.14V6.602h1.394V20.25zM80.823 2.255c0-.313.101-.57.303-.772a1.07 1.07 0 01.788-.318c.313 0 .57.106.772.318.202.202.303.46.303.772 0 .313-.1.576-.303.788-.202.202-.46.303-.772.303-.313 0-.576-.101-.788-.303a1.098 1.098 0 01-.303-.788zM94.627 6.45a5.45 5.45 0 012.151.425 4.793 4.793 0 011.727 1.166c.485.505.863 1.11 1.136 1.817.282.707.424 1.485.424 2.333v8.058h-1.394V12.19c0-.616-.11-1.187-.333-1.712-.212-.535-.51-1-.893-1.393a4.012 4.012 0 00-1.333-.909 4.016 4.016 0 00-1.636-.333c-.616 0-1.192.111-1.727.333a4.097 4.097 0 00-1.378.909 4.426 4.426 0 00-.909 1.378 4.57 4.57 0 00-.318 1.727v8.058h-1.408V6.602h.939l.47 2.015h.15c.253-.394.581-.758.985-1.091.353-.273.803-.52 1.348-.742.545-.222 1.212-.333 2-.333zm20.014 9.921a3.6 3.6 0 01-.348 1.545 4.023 4.023 0 01-.939 1.288 4.704 4.704 0 01-1.469.878 5.362 5.362 0 01-1.893.318c-.748 0-1.419-.106-2.015-.318a4.738 4.738 0 01-1.515-.909 4.486 4.486 0 01-1.014-1.333 4.405 4.405 0 01-.424-1.62h1.393c.162.868.52 1.55 1.075 2.045.566.494 1.399.742 2.5.742 1.009 0 1.802-.263 2.377-.788.586-.525.879-1.14.879-1.848 0-.616-.197-1.09-.591-1.423-.394-.334-.883-.586-1.469-.758a16.57 16.57 0 00-1.908-.47 9.15 9.15 0 01-1.909-.575 4.051 4.051 0 01-1.454-1.06c-.383-.454-.575-1.096-.575-1.924 0-.494.101-.969.303-1.423.212-.455.504-.848.878-1.182a4.08 4.08 0 011.409-.802c.565-.202 1.201-.303 1.908-.303.666 0 1.272.11 1.818.333a4.967 4.967 0 011.438.848c.414.343.738.752.97 1.227a3.9 3.9 0 01.424 1.469h-1.394a3.251 3.251 0 00-1.06-1.772c-.535-.475-1.267-.712-2.196-.712-1.01 0-1.782.232-2.317.697-.525.464-.788 1.004-.788 1.62 0 .596.197 1.046.591 1.348.394.303.878.54 1.454.712.575.162 1.212.313 1.908.455a8.286 8.286 0 011.909.59 3.9 3.9 0 011.454 1.09c.393.475.59 1.147.59 2.015z" fill="#fff"/></svg>