<svg width="45" height="41" fill="none" xmlns="http://www.w3.org/2000/svg"><path d="M31.57 18.35c-.785 4.62 3.76 14.327-1.535 16.17-5.297 1.843-7.645 4.998-9.187-1.575-.72-3.07-1.042-8.81 0-11.456 3.164-.29 4.89-2.775 6.797-3.783 4.39-2.322 4.68 0 3.925.643z" fill="#EC9630"/><path d="M16.047 15.152c-.582-5.233-8.663 4.128-4.942 10.581l.348 8.198 20.35 1.57.056-.23c2.628-10.658 5.26-21.337-1.045-16.34-7.939 6.29-14.202 1.306-14.767-3.78z" fill="#EFBC3A"/><path d="M32.965 25.781c-1.247-5.402-1.642 2.984-9.302-.093-8.082-5.245-12.388-9.584-13.167.093 0 7.452 3.98 11.311 12.524 11.311 14.073-2.056 10.701-5.545 9.945-11.31z" fill="#EC9630"/><path fill-rule="evenodd" clip-rule="evenodd" d="M14.275.559a6.477 6.477 0 00-5.61 3.238L.869 17.304a6.477 6.477 0 000 6.477l7.798 13.506a6.477 6.477 0 005.61 3.239H29.87a6.477 6.477 0 005.61-3.239l7.797-13.506a6.477 6.477 0 000-6.477L35.48 3.797A6.477 6.477 0 0029.87.56H14.276zm17.237 31.046V9.28h-5.154v8.505h-8.53V9.28h-5.154v22.325h5.154v-8.859h8.53v8.86h5.154z" fill="#fff"/></svg>