<svg width="20" height="20" fill="none" xmlns="http://www.w3.org/2000/svg"><g clip-path="url(#clip0_744_19171)" fill-rule="evenodd" clip-rule="evenodd" fill="#fff"><path d="M4.343 4.343a7.983 7.983 0 00-2.299 6.502 1 1 0 11-1.989.21A9.983 9.983 0 012.93 2.928c3.905-3.905 10.237-3.905 14.142 0 .426.426.806.882 1.14 1.361a1 1 0 01-1.64 1.144 8 8 0 00-12.227-1.09z"/><path d="M19 6V1a1 1 0 10-2 0v3h-3a1 1 0 100 2h5z"/><g opacity=".5"><path d="M15.657 15.606a7.983 7.983 0 002.299-6.501 1 1 0 011.989-.21 9.983 9.983 0 01-2.874 8.126c-3.905 3.905-10.237 3.905-14.142 0a10.055 10.055 0 01-1.14-1.362 1 1 0 111.64-1.143 8 8 0 0012.227 1.09z"/><path d="M1 13.95v5a1 1 0 102 0v-3h3a1 1 0 100-2H1z"/></g></g><defs><clipPath id="clip0_744_19171"><path fill="#fff" d="M0 0h20v20H0z"/></clipPath></defs></svg>