<svg width="393" height="356" viewBox="0 0 393 356" fill="none" xmlns="http://www.w3.org/2000/svg">
<path d="M280.829 158.534C273.856 199.557 314.225 285.76 267.197 302.124C220.169 318.488 199.319 346.501 185.622 288.134C179.226 260.877 176.368 209.906 185.622 186.412C213.715 183.831 229.048 161.774 245.973 152.823C284.959 132.205 287.54 152.823 280.829 158.534Z" fill="#EC9630"/>
<path d="M142.987 130.14C137.825 83.6764 66.0648 166.794 99.1054 224.099L102.203 296.891L282.893 310.83L283.395 308.795C306.731 214.152 330.111 119.329 274.117 163.696C203.623 219.553 148.004 175.292 142.987 130.14Z" fill="#EFBC3A"/>
<path d="M293.218 224.523C282.146 176.556 278.641 251.021 210.617 223.7C138.857 177.119 100.621 138.593 93.7053 224.523C93.7053 290.696 129.048 324.962 204.905 324.962C329.873 306.7 299.93 275.725 293.218 224.523Z" fill="#EC9630"/>
<path fill-rule="evenodd" clip-rule="evenodd" d="M127.258 0.558844C106.709 0.558845 87.7221 11.5212 77.448 29.3164L8.20556 149.248C-2.06852 167.043 -2.06852 188.968 8.20557 206.763L77.448 326.694C87.7221 344.49 106.709 355.452 127.258 355.452H265.742C286.291 355.452 305.278 344.49 315.552 326.694L384.794 206.763C395.069 188.968 395.069 167.043 384.794 149.248L315.552 29.3164C305.278 11.5212 286.291 0.558838 265.742 0.558838L127.258 0.558844ZM280.312 276.241V77.9976H234.55V153.519H158.806V77.9976H113.044V276.241H158.806V197.573H234.55V276.241H280.312Z" fill="white"/>
</svg>
