<svg width="167" height="185" viewBox="0 0 167 185" fill="none" xmlns="http://www.w3.org/2000/svg">
<path d="M115.256 60.1785C112.625 75.6606 127.86 108.193 110.112 114.369C92.3636 120.545 84.4949 131.117 79.3257 109.089C76.9117 98.8028 75.8332 79.5662 79.3257 70.6996C89.9278 69.7254 95.7143 61.4014 102.102 58.0231C116.815 50.2418 117.789 58.0231 115.256 60.1785Z" fill="#EC9630"/>
<path d="M63.2365 49.4625C61.2881 31.9273 34.206 63.2958 46.6755 84.9226L47.8445 112.394L116.037 117.655L116.226 116.887C125.033 81.1688 133.857 45.3827 112.725 62.1268C86.1204 83.2071 65.1299 66.5032 63.2365 49.4625Z" fill="#EFBC3A"/>
<path d="M119.933 85.0828C115.754 66.9801 114.432 95.0828 88.7595 84.772C61.6774 67.1925 47.2471 52.6526 44.637 85.0828C44.637 110.056 57.9755 122.988 86.6039 122.988C133.767 116.096 122.466 104.406 119.933 85.0828Z" fill="#EC9630"/>
<path fill-rule="evenodd" clip-rule="evenodd" d="M57.2991 0.55884C49.5443 0.558841 42.3785 4.69601 38.501 11.4119L12.369 56.6739C8.49158 63.3898 8.49158 71.6642 12.369 78.3801L38.501 123.642C42.3785 130.358 49.5443 134.495 57.2991 134.495H109.563C117.318 134.495 124.484 130.358 128.361 123.642L154.493 78.3801C158.371 71.6642 158.371 63.3898 154.493 56.6739L128.361 11.4119C124.484 4.69601 117.318 0.558838 109.563 0.558838L57.2991 0.55884ZM115.063 104.601V29.7841H97.7925V58.2857H69.2068V29.7841H51.9363V104.601H69.2068V74.9117H97.7925V104.601H115.063Z" fill="white"/>
<path d="M26.249 156.771V184.267H19.9208V173.356H9.44642V184.267H3.11816V156.771H9.44642V167.246H19.9208V156.771H26.249Z" fill="white"/>
<path d="M30.194 174.229C30.194 172.745 30.4558 171.377 30.9795 170.126C31.5324 168.846 32.2743 167.74 33.2053 166.809C34.1364 165.849 35.2129 165.107 36.4349 164.584C37.686 164.031 39.0244 163.754 40.4501 163.754C41.8758 163.754 43.1996 164.031 44.4216 164.584C45.6727 165.107 46.7638 165.849 47.6949 166.809C48.6259 167.74 49.3533 168.846 49.877 170.126C50.4298 171.377 50.7062 172.745 50.7062 174.229C50.7062 175.713 50.4298 177.095 49.877 178.375C49.3533 179.626 48.6259 180.732 47.6949 181.692C46.7638 182.623 45.6727 183.365 44.4216 183.918C43.1996 184.441 41.8758 184.703 40.4501 184.703C39.0244 184.703 37.686 184.441 36.4349 183.918C35.2129 183.365 34.1364 182.623 33.2053 181.692C32.2743 180.732 31.5324 179.626 30.9795 178.375C30.4558 177.095 30.194 175.713 30.194 174.229ZM44.8144 174.229C44.8144 172.687 44.3925 171.465 43.5488 170.563C42.705 169.661 41.6721 169.21 40.4501 169.21C39.2281 169.21 38.1952 169.661 37.3514 170.563C36.5077 171.465 36.0858 172.687 36.0858 174.229C36.0858 175.771 36.5077 176.993 37.3514 177.895C38.1952 178.797 39.2281 179.248 40.4501 179.248C41.6721 179.248 42.705 178.797 43.5488 177.895C44.3925 176.993 44.8144 175.771 44.8144 174.229Z" fill="white"/>
<path d="M55.9554 169.646H52.9003V164.627H54.4278C56.0281 164.627 56.8282 163.827 56.8282 162.227V159.39H61.8472V164.191H65.9933V169.646H61.8472V176.193C61.8472 177.066 62.0945 177.764 62.5891 178.288C63.0837 178.782 63.7093 179.029 64.4658 179.029C64.6985 179.029 64.9022 179.029 65.0768 179.029C65.2514 179 65.4114 178.971 65.5569 178.942C65.7023 178.913 65.8478 178.869 65.9933 178.811V184.048C65.7605 184.136 65.4987 184.208 65.2077 184.267C64.6258 184.412 63.9421 184.485 63.1565 184.485C60.8579 184.485 59.0831 183.859 57.832 182.608C56.5809 181.328 55.9554 179.48 55.9554 177.066V169.646Z" fill="white"/>
<path d="M73.4305 163.532C73.4305 162.594 73.6223 161.706 74.0059 160.868C74.4037 160.03 74.9719 159.291 75.7107 158.652C76.4494 158.013 77.3445 157.508 78.3958 157.139C79.4471 156.755 80.6262 156.563 81.9333 156.563C83.0698 156.563 84.1282 156.769 85.1085 157.181C86.1029 157.579 86.9696 158.126 87.7083 158.822C88.4613 159.518 89.0508 160.328 89.4771 161.252C89.9175 162.161 90.1661 163.141 90.2229 164.193H88.0493C87.9356 162.559 87.3247 161.209 86.2166 160.144C85.1085 159.064 83.6807 158.524 81.9333 158.524C80.9388 158.524 80.0509 158.666 79.2695 158.95C78.4881 159.22 77.8275 159.59 77.2877 160.058C76.7478 160.513 76.3287 161.046 76.0304 161.657C75.7462 162.267 75.6041 162.893 75.6041 163.532C75.6041 164.782 75.9735 165.755 76.7123 166.451C77.451 167.133 78.3816 167.694 79.5039 168.135C80.6262 168.561 81.8338 168.945 83.1266 169.286C84.4194 169.612 85.627 170.067 86.7494 170.649C87.8717 171.232 88.8022 171.999 89.541 172.951C90.2939 173.889 90.6704 175.189 90.6704 176.851C90.6704 177.959 90.4715 178.982 90.0737 179.919C89.6759 180.843 89.1006 181.638 88.3476 182.306C87.5947 182.974 86.6783 183.507 85.5986 183.904C84.5189 184.288 83.2971 184.48 81.9333 184.48C80.5694 184.48 79.3476 184.288 78.2679 183.904C77.1882 183.507 76.2648 182.96 75.4976 182.264C74.7304 181.567 74.1338 180.736 73.7076 179.77C73.2813 178.804 73.0398 177.76 72.983 176.638H75.1779C75.4053 178.385 76.0943 179.806 77.245 180.9C78.3958 181.979 79.9585 182.519 81.9333 182.519C84.0217 182.519 85.6341 181.994 86.7707 180.942C87.9072 179.877 88.4755 178.513 88.4755 176.851C88.4755 175.544 88.1061 174.521 87.3673 173.782C86.6286 173.029 85.6981 172.425 84.5757 171.971C83.4534 171.502 82.2458 171.104 80.953 170.777C79.6602 170.436 78.4526 169.989 77.3303 169.435C76.2079 168.881 75.2774 168.156 74.5386 167.261C73.7999 166.352 73.4305 165.109 73.4305 163.532Z" fill="white"/>
<path d="M111.84 184.267H109.219L99.6292 174.23V184.267H97.6474V156.777H99.6292V174.23L108.345 165.066H110.966L102.229 174.23L111.84 184.267Z" fill="white"/>
<path d="M119.243 184.267H117.283V165.066H119.243V184.267ZM116.835 158.95C116.835 158.51 116.977 158.148 117.261 157.863C117.56 157.565 117.929 157.416 118.369 157.416C118.81 157.416 119.172 157.565 119.456 157.863C119.74 158.148 119.882 158.51 119.882 158.95C119.882 159.391 119.74 159.76 119.456 160.058C119.172 160.342 118.81 160.485 118.369 160.485C117.929 160.485 117.56 160.342 117.261 160.058C116.977 159.76 116.835 159.391 116.835 158.95Z" fill="white"/>
<path d="M136.257 164.853C137.337 164.853 138.345 165.052 139.283 165.45C140.235 165.833 141.045 166.38 141.712 167.091C142.394 167.801 142.927 168.653 143.311 169.648C143.708 170.642 143.907 171.736 143.907 172.93V184.267H141.947V172.93C141.947 172.063 141.791 171.26 141.478 170.522C141.18 169.769 140.761 169.115 140.221 168.561C139.681 168.007 139.056 167.581 138.345 167.282C137.635 166.97 136.868 166.814 136.044 166.814C135.177 166.814 134.368 166.97 133.615 167.282C132.876 167.581 132.229 168.007 131.675 168.561C131.136 169.115 130.709 169.762 130.397 170.5C130.098 171.239 129.949 172.049 129.949 172.93V184.267H127.967V165.066H129.289L129.949 167.9H130.162C130.518 167.346 130.979 166.835 131.548 166.366C132.045 165.983 132.677 165.634 133.444 165.322C134.211 165.009 135.149 164.853 136.257 164.853Z" fill="white"/>
<path d="M164.416 178.811C164.416 179.564 164.253 180.289 163.926 180.985C163.614 181.667 163.173 182.271 162.605 182.796C162.037 183.308 161.348 183.72 160.538 184.032C159.742 184.331 158.854 184.48 157.874 184.48C156.823 184.48 155.878 184.331 155.04 184.032C154.216 183.72 153.505 183.293 152.909 182.754C152.312 182.214 151.836 181.589 151.481 180.878C151.14 180.168 150.941 179.408 150.884 178.598H152.845C153.072 179.82 153.577 180.779 154.358 181.475C155.153 182.171 156.326 182.519 157.874 182.519C159.295 182.519 160.41 182.15 161.22 181.411C162.044 180.672 162.456 179.806 162.456 178.811C162.456 177.945 162.179 177.277 161.625 176.808C161.071 176.339 160.382 175.984 159.558 175.743C158.748 175.487 157.853 175.267 156.872 175.082C155.906 174.897 155.011 174.627 154.187 174.272C153.378 173.917 152.696 173.42 152.142 172.78C151.602 172.141 151.332 171.239 151.332 170.074C151.332 169.378 151.474 168.71 151.758 168.071C152.056 167.432 152.468 166.878 152.994 166.409C153.534 165.926 154.195 165.549 154.976 165.279C155.771 164.995 156.666 164.853 157.661 164.853C158.599 164.853 159.451 165.009 160.218 165.322C160.985 165.62 161.66 166.018 162.243 166.515C162.825 166.998 163.28 167.574 163.606 168.241C163.947 168.909 164.146 169.598 164.203 170.309H162.243C162.015 169.314 161.518 168.483 160.751 167.815C159.998 167.148 158.968 166.814 157.661 166.814C156.24 166.814 155.153 167.14 154.4 167.794C153.662 168.447 153.292 169.207 153.292 170.074C153.292 170.912 153.569 171.545 154.123 171.971C154.678 172.397 155.359 172.731 156.169 172.972C156.979 173.2 157.874 173.413 158.854 173.612C159.835 173.796 160.73 174.073 161.539 174.443C162.349 174.798 163.031 175.309 163.585 175.977C164.139 176.645 164.416 177.589 164.416 178.811Z" fill="white"/>
</svg>
